<svg width="275" height="273" viewBox="0 0 275 273" fill="none" xmlns="http://www.w3.org/2000/svg">
<mask id="mask0_1371_1184" style="mask-type:alpha" maskUnits="userSpaceOnUse" x="0" y="0" width="275" height="273">
<path d="M119.878 8.19692C128.955 -2.73223 145.727 -2.73223 154.805 8.19692L160.417 14.954C166.316 22.0561 175.928 24.8784 184.73 22.0929L193.104 19.4426C206.649 15.156 220.759 24.2237 222.486 38.3254L223.554 47.044C224.677 56.2077 231.237 63.7788 240.148 66.1941L248.626 68.4921C262.338 72.209 269.306 87.4654 263.135 100.263L259.32 108.175C255.31 116.49 256.736 126.406 262.926 133.256L268.816 139.773C278.342 150.313 275.955 166.914 263.845 174.344L256.358 178.937C248.489 183.765 244.327 192.878 245.832 201.986L247.263 210.653C249.579 224.67 238.595 237.346 224.391 237.049L215.609 236.865C206.379 236.672 197.951 242.088 194.293 250.564L190.811 258.629C185.181 271.673 169.088 276.398 157.3 268.469L150.011 263.567C142.35 258.414 132.332 258.414 124.672 263.567L117.383 268.469C105.595 276.398 89.5019 271.673 83.8713 258.629L80.3902 250.564C76.7314 242.088 68.3037 236.672 59.0735 236.865L50.2917 237.049C36.0876 237.346 25.1042 224.67 27.4195 210.653L28.851 201.986C30.3556 192.878 26.194 183.765 18.3247 178.937L10.8377 174.344C-1.27201 166.914 -3.65892 150.313 5.86715 139.772L11.7568 133.256C17.9471 126.406 19.3728 116.49 15.3629 108.175L11.5478 100.263C5.37717 87.4654 12.3445 72.209 26.0569 68.4921L34.5347 66.1941C43.4454 63.7788 50.0058 56.2077 51.1284 47.044L52.1965 38.3254C53.924 24.2237 68.0336 15.156 81.5787 19.4426L89.9531 22.0929C98.755 24.8784 108.367 22.056 114.266 14.954L119.878 8.19692Z" fill="#EF3187"/>
</mask>
<g mask="url(#mask0_1371_1184)">
<path d="M121.481 9.5293C129.725 -0.396255 144.957 -0.396256 153.201 9.5293L158.813 16.2861C165.254 24.0401 175.748 27.1213 185.358 24.0801L193.733 21.4297C206.035 17.537 218.848 25.7724 220.417 38.5791L221.485 47.2979C222.711 57.3028 229.874 65.5689 239.603 68.2061L248.08 70.5039C260.533 73.8795 266.861 87.7354 261.257 99.3574L257.442 107.27C253.064 116.349 254.621 127.175 261.38 134.653L267.27 141.17C275.921 150.742 273.752 165.819 262.755 172.566L255.268 177.16C246.676 182.431 242.133 192.381 243.775 202.326L245.206 210.992C247.309 223.722 237.334 235.234 224.435 234.965L215.653 234.781C205.576 234.571 196.374 240.484 192.379 249.738L188.897 257.803C183.784 269.649 169.169 273.94 158.463 266.739L151.175 261.837C142.811 256.211 131.873 256.211 123.509 261.837L116.22 266.739C105.514 273.94 90.8986 269.649 85.7852 257.803L82.3037 249.738C78.3089 240.484 69.1079 234.571 59.0303 234.781L50.248 234.965C37.3483 235.234 27.3738 223.722 29.4766 210.992L30.9082 202.326C32.5509 192.381 28.0068 182.431 19.415 177.16L11.9277 172.566C0.930248 165.819 -1.23718 150.742 7.41406 141.17L13.3037 134.653C20.0621 127.175 21.6181 116.349 17.2402 107.27L13.4258 99.3574C7.82176 87.7354 14.1494 73.8795 26.6025 70.5039L35.0801 68.2061C44.8088 65.569 51.9714 57.3028 53.1973 47.2979L54.2656 38.5791C55.8346 25.7723 68.6489 17.5367 80.9502 21.4297L89.3242 24.0801C98.9343 27.1214 109.429 24.0401 115.869 16.2861L121.481 9.5293Z" fill="#FEF6EB" stroke="#566B10" stroke-width="4.16918"/>
</g>
</svg>
