<svg width="68" height="68" viewBox="0 0 68 68" fill="none" xmlns="http://www.w3.org/2000/svg">
<g filter="url(#filter0_d_563_461)">
<path d="M31.2418 45.0919C31.7146 42.9944 31.4388 40.5822 31.2418 39.6383C30.0269 39.848 27.0257 39.6383 24.7403 37.1212C22.4549 34.6042 21.8836 32.5765 21.8836 31.8773C21.3582 33.2407 19.5982 35.3803 16.7612 33.031C13.2149 30.0944 13.4119 26.3188 14.397 24.0115C15.3821 21.7042 17.8448 22.0188 19.0269 22.8578C19.9725 23.5291 20.5373 24.396 20.7015 24.7456C20.6687 22.8928 21.3713 18.8934 24.4448 17.7188C28.2866 16.2505 31.5373 14.6773 32.6209 12.7895C33.4878 11.2793 33.9015 9.92288 34 9.43345C34.0985 9.92288 34.5122 11.2793 35.3791 12.7895C36.4627 14.6773 39.7134 16.2505 43.5552 17.7188C46.6287 18.8934 47.3313 22.8928 47.2985 24.7456C47.4627 24.396 48.0275 23.5291 48.9731 22.8578C50.1552 22.0188 52.6179 21.7042 53.603 24.0115C54.5881 26.3188 54.7851 30.0944 51.2388 33.031C48.4018 35.3803 46.6418 33.2407 46.1164 31.8773C46.1164 32.5765 45.5451 34.6042 43.2597 37.1212C40.9743 39.6383 37.9731 39.848 36.7582 39.6383C36.5612 40.5822 36.2854 42.9944 36.7582 45.0919C36.8828 45.6448 37.0162 46.1231 37.1972 46.5602H43.5552C47.0227 46.5602 50.1224 45.8612 51.2388 45.5117C58.9618 43.3302 64.9642 38.6597 67 36.5971C65.8179 34.6044 62.2716 29.6542 57.5433 25.7947C51.6328 20.9703 52.9134 8.2801 47.2985 2.93133C42.8066 -1.34768 36.5612 2.12696 34 4.39931C31.4388 2.12696 25.1934 -1.34799 20.7015 2.93102C15.0866 8.27979 16.3672 20.97 10.4567 25.7944C5.72836 29.6539 2.18209 34.6041 1 36.5968C3.03581 38.6594 9.03819 43.3299 16.7612 45.5114C24.4842 47.6929 29.3402 47.1195 30.8028 46.5602C30.9838 46.1231 31.1171 45.6448 31.2418 45.0919Z" fill="#E2F1AE"/>
<path fill-rule="evenodd" clip-rule="evenodd" d="M26.52 50.4773L34.1467 53.4742L41.7733 50.6492C38.869 48.9603 37.7835 47.9764 37.1972 46.5602C37.0162 46.1231 36.8828 45.6448 36.7582 45.0919C36.2854 42.9944 36.5612 40.5822 36.7582 39.6383C37.9731 39.848 40.9743 39.6383 43.2597 37.1212C45.5451 34.6042 46.1164 32.5765 46.1164 31.8773C46.6418 33.2407 48.4018 35.3803 51.2388 33.031C54.7851 30.0944 54.5881 26.3188 53.603 24.0115C52.6179 21.7042 50.1552 22.0188 48.9731 22.8578C48.0275 23.5291 47.4627 24.396 47.2985 24.7456C47.3313 22.8928 46.6287 18.8934 43.5552 17.7188C39.7134 16.2505 36.4627 14.6773 35.3791 12.7895C34.5122 11.2793 34.0985 9.92288 34 9.43345C33.9015 9.92288 33.4878 11.2793 32.6209 12.7895C31.5373 14.6773 28.2866 16.2505 24.4448 17.7188C21.3713 18.8934 20.6687 22.8928 20.7015 24.7456C20.5373 24.396 19.9725 23.5291 19.0269 22.8578C17.8448 22.0188 15.3821 21.7042 14.397 24.0115C13.4119 26.3188 13.2149 30.0944 16.7612 33.031C19.5982 35.3803 21.3582 33.2407 21.8836 31.8773C21.8836 32.5765 22.4549 34.6042 24.7403 37.1212C27.0257 39.6383 30.0269 39.848 31.2418 39.6383C31.4388 40.5822 31.7146 42.9944 31.2418 45.0919C31.1171 45.6448 30.9838 46.1231 30.8028 46.5602C30.2367 47.9277 29.2051 48.8921 26.52 50.4773Z" fill="#FEF6EB"/>
<path d="M24.7403 51.4895C20.6424 53.7548 16.4657 64.3512 14.791 66.9032H53.603C51.9284 64.3512 47.3576 53.7548 43.2597 51.4895C42.7173 51.1896 42.2235 50.9109 41.7733 50.6492L34.1467 53.4742L26.52 50.4773C25.9934 50.7883 25.4031 51.1231 24.7403 51.4895Z" fill="#A6C0FF"/>
</g>
<defs>
<filter id="filter0_d_563_461" x="0.608889" y="0.903198" width="66.7822" height="66.7822" filterUnits="userSpaceOnUse" color-interpolation-filters="sRGB">
<feFlood flood-opacity="0" result="BackgroundImageFix"/>
<feColorMatrix in="SourceAlpha" type="matrix" values="0 0 0 0 0 0 0 0 0 0 0 0 0 0 0 0 0 0 127 0" result="hardAlpha"/>
<feOffset dy="0.391111"/>
<feGaussianBlur stdDeviation="0.195556"/>
<feComposite in2="hardAlpha" operator="out"/>
<feColorMatrix type="matrix" values="0 0 0 0 0 0 0 0 0 0 0 0 0 0 0 0 0 0 0.25 0"/>
<feBlend mode="normal" in2="BackgroundImageFix" result="effect1_dropShadow_563_461"/>
<feBlend mode="normal" in="SourceGraphic" in2="effect1_dropShadow_563_461" result="shape"/>
</filter>
</defs>
</svg>
