<svg width="72" height="67" viewBox="0 0 72 67" fill="none" xmlns="http://www.w3.org/2000/svg">
<path d="M14.5598 18.439L13.9831 24.4935C12.5416 25.4065 9.51431 27.2613 8.93768 27.3767C8.2169 27.5208 0 21.178 0 22.3312C0 23.4845 1.87403 31.1247 7.35196 33.8637C12.8299 36.6027 15.2806 33.1429 17.8754 33.1429C19.2881 33.1429 25.9567 37.6296 32.4838 42.3689L38.4897 35.269C32.1568 30.6334 25.8465 25.83 24.6507 24.4935C22.2 21.7545 25.9481 22.7636 22.2 16.1325C18.452 9.50127 7.06365 11.8078 6.34287 12.2402C5.76625 12.5862 11.5805 16.5169 14.5598 18.439Z" fill="#A6C0FF"/>
<path d="M62.5638 43.8105C57.23 41.9364 54.2027 45.6845 52.617 45.1079C51.8051 44.8126 45.1349 40.1332 38.4897 35.269L32.4838 42.3689C37.9453 46.3345 43.3077 50.4769 45.4092 52.3157C50.0222 56.3521 45.8417 54.1897 48.8689 61.2534C51.8962 68.317 64.4378 67.3079 64.582 65.8664C64.7261 64.4248 57.3741 60.965 56.9417 59.8118C56.5092 58.6586 56.9417 54.1897 56.9417 53.7572C56.9417 53.3248 61.5547 51.7391 62.5638 51.1624C63.5729 50.5858 70.4924 56.9287 71.3573 56.3521C72.2222 55.7754 67.8976 45.6845 62.5638 43.8105Z" fill="#FEF6EB"/>
<path d="M30.1912 31.2759C28.9815 30.3677 27.2646 30.6121 26.3564 31.8218C25.4482 33.0315 25.6926 34.7484 26.9023 35.6566L35.2026 41.8883L38.4915 37.5076L30.1912 31.2759Z" fill="#A6C0FF"/>
<path d="M30.1912 31.2759C28.9815 30.3677 27.2646 30.6121 26.3564 31.8218C25.4482 33.0315 25.6926 34.7484 26.9023 35.6566L35.2026 41.8883L38.4915 37.5076L30.1912 31.2759Z" fill="black" fill-opacity="0.2"/>
<path d="M43.5028 48.12C44.7125 49.0283 46.4295 48.7839 47.3377 47.5742C48.2459 46.3645 48.0015 44.6476 46.7918 43.7393L38.4915 37.5076L35.2026 41.8883L43.5028 48.12Z" fill="#FEF6EB"/>
<path d="M43.5028 48.12C44.7125 49.0283 46.4295 48.7839 47.3377 47.5742C48.2459 46.3645 48.0015 44.6476 46.7918 43.7393L38.4915 37.5076L35.2026 41.8883L43.5028 48.12Z" fill="black" fill-opacity="0.2"/>
<path d="M31.5702 57.6495C30.6572 55.5352 29.379 50.1245 31.5702 45.3962C33.7614 40.6679 37.4806 38.6209 39.0663 38.1884" stroke="#E2F1AE" stroke-width="2.88312" stroke-linecap="round"/>
<path d="M31.5702 57.6495C30.6572 55.5352 29.379 50.1245 31.5702 45.3962C33.7614 40.6679 37.4806 38.6209 39.0663 38.1884" stroke="black" stroke-opacity="0.2" stroke-width="2.88312" stroke-linecap="round"/>
<path d="M57.9508 34.7343C56.9417 33.8694 53.8856 32.1683 49.7339 32.2837C45.5822 32.399 40.9884 35.0226 39.2105 36.32L39.4267 37.5453L57.9508 34.7343Z" fill="#E2F1AE"/>
<path d="M39.6429 38.7707C41.4209 39.4434 46.0723 40.3852 50.4547 38.7707C54.837 37.1561 57.278 35.407 57.9508 34.7343L39.4267 37.5453L39.6429 38.7707Z" fill="#E2F1AE"/>
<path d="M39.6429 38.7707C41.4209 39.4434 46.0723 40.3852 50.4547 38.7707C54.837 37.1561 57.278 35.407 57.9508 34.7343L39.4267 37.5453L39.6429 38.7707Z" fill="black" fill-opacity="0.2"/>
<path d="M19.8935 53.0365C19.6533 49.865 20.4125 43.1185 25.3715 41.504C31.5702 39.4858 33.5237 40.3888 37.6247 37.1793C40.9403 34.5845 42.2377 29.6351 42.8144 27.8091" stroke="#E2F1AE" stroke-width="5.76625" stroke-linecap="round"/>
<path d="M40.6523 29.9715C41.1809 30.2598 43.0741 30.7788 46.4185 30.5481C47.3819 30.4817 49.0648 30.2239 51.0315 29.7641C52.7322 28.7453 54.8267 26.8471 53.0497 25.3269C52.7682 25.086 52.3894 24.8546 51.8965 24.6377C50.7046 24.1133 49.4726 23.9845 48.2926 24.0918C45.6384 24.3331 43.247 25.7689 42.1659 26.5839L40.9808 29.2362L40.6523 29.9715Z" fill="#520521"/>
<path d="M51.0315 29.7641C57.5997 28.2287 67.3337 24.441 64.0056 18.0066C63.5731 19.1598 61.9586 21.8988 58.9601 23.6286C55.9617 25.3585 53.7705 25.4816 53.0497 25.3269C54.8267 26.8471 52.7322 28.7453 51.0315 29.7641Z" fill="#A11346"/>
<path d="M43.6796 23.1962L42.1659 26.5839C43.247 25.7689 45.6384 24.3331 48.2926 24.0918L43.6796 23.1962Z" fill="#E0226E"/>
<path d="M48.2926 24.0918C49.4726 23.9845 50.7046 24.1133 51.8965 24.6377C52.3894 24.8546 52.7682 25.086 53.0497 25.3269C53.7705 25.4816 55.9617 25.3585 58.9601 23.6286C61.9586 21.8988 63.5731 19.1598 64.0056 18.0066C62.8523 15.777 60.8021 15.1085 58.3835 15.3755C56.3744 15.5972 54.111 16.4645 51.8965 17.6185C48.7792 19.2429 45.7585 21.4357 43.6796 23.1962L48.2926 24.0918Z" fill="#C21455"/>
<path d="M51.2102 15.6354C47.7891 17.9822 44.9852 21.2856 43.6796 23.1962C45.7585 21.4357 48.7792 19.2429 51.8965 17.6185C51.8965 17.2204 51.7475 16.3722 51.2102 15.6354Z" fill="#E2F1AE"/>
<path d="M58.3835 6.76236C57.3926 5.17691 55.9445 4.71407 54.6352 4.73439C53.6587 4.74955 52.7595 5.03342 52.1848 5.3208L48.2926 13.5011C48.725 13.7055 49.8206 14.3161 50.7432 15.1234C50.9244 15.2819 51.0789 15.4553 51.2102 15.6354C52.9515 14.4409 54.8528 13.4943 56.7978 13.1053C57.6606 12.9327 58.4265 12.8742 59.1054 12.9065C59.4743 10.9837 59.5194 8.57987 58.3835 6.76236Z" fill="#A6C0FF"/>
<path d="M51.8965 17.6185C54.111 16.4645 56.3744 15.5972 58.3835 15.3755C58.631 14.7857 58.9124 13.9118 59.1054 12.9065C58.4265 12.8742 57.6606 12.9327 56.7978 13.1053C54.8528 13.4943 52.9515 14.4409 51.2102 15.6354C51.7475 16.3722 51.8965 17.2204 51.8965 17.6185Z" fill="#A6C0FF"/>
<path d="M48.2926 13.5011L43.6796 23.1962C44.9852 21.2856 47.7891 17.9822 51.2102 15.6354C51.0789 15.4553 50.9244 15.2819 50.7432 15.1234C49.8206 14.3161 48.725 13.7055 48.2926 13.5011Z" fill="#E2F1AE"/>
<path d="M58.3835 15.3755C60.8021 15.1085 62.8523 15.777 64.0056 18.0066C64.0056 16.2086 62.9632 13.0903 59.1054 12.9065C58.9124 13.9118 58.631 14.7857 58.3835 15.3755Z" fill="#FEF6EB"/>
<path d="M40.7547 29.7643C40.1842 29.5717 38.5182 28.5335 36.4177 25.9208C35.8126 25.1682 34.8598 23.7573 33.8626 22.0009C33.4565 20.0604 33.429 17.2338 35.7516 17.5071C36.1196 17.5504 36.5466 17.6715 37.0404 17.8864C38.2345 18.4058 39.1652 19.2231 39.8873 20.1626C41.5115 22.2756 42.0801 25.0063 42.2153 26.3534L40.9808 29.2362L40.7547 29.7643Z" fill="#520521"/>
<path d="M33.8626 22.0009C30.5323 16.1351 26.7076 6.41555 33.6918 4.4927C33.1384 5.59302 32.2227 8.6377 32.9873 12.0139C33.752 15.39 35.1488 17.0828 35.7516 17.5071C33.429 17.2338 33.4565 20.0604 33.8626 22.0009Z" fill="#A11346"/>
<path d="M43.6759 22.9425L42.2153 26.3534C42.0801 25.0063 41.5115 22.2756 39.8873 20.1626L43.6759 22.9425Z" fill="#E0226E"/>
<path d="M39.8873 20.1626C39.1652 19.2231 38.2345 18.4058 37.0404 17.8864C36.5466 17.6715 36.1196 17.5504 35.7516 17.5071C35.1488 17.0828 33.752 15.39 32.9873 12.0139C32.2227 8.6377 33.1384 5.59302 33.6918 4.4927C36.112 3.8264 37.9944 4.87842 39.4399 6.83586C40.6407 8.46189 41.5399 10.7127 42.1954 13.1223C43.1181 16.5142 43.5579 20.2209 43.6759 22.9425L39.8873 20.1626Z" fill="#C21455"/>
<path d="M44.1176 12.2804C44.7161 16.3857 44.193 20.6869 43.6759 22.9425C43.5579 20.2209 43.1181 16.5142 42.1954 13.1223C42.4877 12.8522 43.2118 12.3858 44.1176 12.2804Z" fill="#E2F1AE"/>
<path d="M45.7655 0.990077C47.6469 0.63331 48.989 1.42812 49.8616 2.4378C50.4763 3.14907 50.858 3.96698 51.0313 4.56407L47.6653 12.9746C47.2216 12.7957 46.0296 12.4055 44.8105 12.2759C44.5711 12.2504 44.3389 12.2546 44.1176 12.2804C43.813 10.1908 43.2178 8.15204 42.1834 6.45961C41.7246 5.70885 41.2477 5.10659 40.7632 4.63002C41.9249 3.05402 43.6597 1.38939 45.7655 0.990077Z" fill="#A6C0FF"/>
<path d="M42.1954 13.1223C41.5399 10.7127 40.6407 8.46189 39.4399 6.83586C39.7051 6.25382 40.1558 5.45404 40.7632 4.63002C41.2477 5.10659 41.7246 5.70885 42.1834 6.45961C43.2178 8.15204 43.813 10.1908 44.1176 12.2804C43.2118 12.3858 42.4877 12.8522 42.1954 13.1223Z" fill="#A6C0FF"/>
<path d="M47.6653 12.9746L43.6759 22.9425C44.193 20.6869 44.7161 16.3857 44.1176 12.2804C44.3389 12.2546 44.5711 12.2504 44.8105 12.2759C46.0296 12.4055 47.2216 12.7957 47.6653 12.9746Z" fill="#E2F1AE"/>
<path d="M39.4399 6.83586C37.9944 4.87842 36.112 3.8264 33.6918 4.4927C35.0123 3.27243 38.0099 1.92154 40.7632 4.63002C40.1558 5.45404 39.7051 6.25382 39.4399 6.83586Z" fill="#FEF6EB"/>
<path d="M40.9808 29.2362L42.1659 26.5839L43.6796 23.1962L48.2926 13.5011L52.1848 5.3208C52.7595 5.03342 53.6587 4.74955 54.6352 4.73439C54.4429 4.06497 53.7702 2.66845 52.617 2.4378C51.4637 2.20715 50.2995 2.3417 49.8616 2.4378C50.4763 3.14907 50.858 3.96698 51.0313 4.56407L47.6653 12.9746L43.6759 22.9425L42.2153 26.3534L40.9808 29.2362Z" fill="#FEF6EB"/>
</svg>
